<svg xmlns="http://www.w3.org/2000/svg" width="630" height="630" viewBox="0 0 630 630" version="1.1">
	<path d="M -0 169.070 L -0 338.139 2.250 337.820 C 4.366 337.519, 4.535 336.905, 5.080 327.500 C 5.525 319.835, 5.350 317.241, 4.330 316.390 C 3.318 315.545, 3 311.191, 3 298.200 L 3 281.121 6.649 280.810 L 10.298 280.500 12.627 270 C 20.574 234.175, 35.080 199.892, 55.772 168.030 C 62.139 158.226, 71.110 145.681, 72.956 144 C 73.258 143.725, 76.064 140.333, 79.193 136.461 C 86.822 127.021, 111.243 103.291, 123 93.893 C 170.206 56.159, 228.392 32.725, 289 27.038 C 295.325 26.445, 304.100 25.856, 308.500 25.729 L 316.500 25.500 316.780 12.750 L 317.060 0 158.530 0 L 0 0 -0 169.070 M 320.220 12.750 L 320.500 25.500 335 26.172 C 460.862 32.001, 572.587 115.988, 614.579 236.341 C 619.276 249.803, 625.427 273.963, 627.477 287 C 628.385 292.775, 629.272 298.175, 629.448 299 C 629.624 299.825, 629.820 232.888, 629.884 150.250 L 630 0 474.970 0 L 319.940 0 320.220 12.750 M 292.500 29.684 C 290.300 29.876, 281.750 30.976, 273.500 32.129 C 191.930 43.531, 116.779 88.852, 67.688 156.247 C 43.097 190.007, 24.601 230.387, 15.960 269.179 C 13.377 280.776, 13.396 281, 16.970 281 L 19.940 281 20.220 268.250 L 20.500 255.500 41.720 255.230 L 62.940 254.960 63.220 267.730 L 63.500 280.500 71.750 280.790 L 80 281.081 80 292.768 L 80 304.456 83.201 300.478 C 89.093 293.156, 95.438 287.940, 103.206 284.034 C 112.970 279.125, 120.197 277.622, 131.058 278.240 L 139.616 278.727 141.958 272.113 C 148.277 254.270, 162.499 230.747, 176.914 214.296 C 207.390 179.515, 254.869 155.109, 299 151.537 C 303.125 151.203, 308.863 150.688, 311.750 150.393 L 317 149.856 317 89.428 L 317 29 306.750 29.168 C 301.113 29.261, 294.700 29.493, 292.500 29.684 M 320 89.283 L 320 149.877 324.250 150.394 C 326.587 150.677, 332.112 151.157, 336.527 151.460 C 346.430 152.138, 361.869 155.082, 372.542 158.326 C 420.033 172.761, 459.406 204.613, 484.005 248.500 C 485.855 251.800, 487.641 254.725, 487.974 255 C 488.307 255.275, 489.095 257.075, 489.724 259 C 490.354 260.925, 492.439 266.550, 494.357 271.500 L 497.846 280.500 501.780 280.801 L 505.714 281.101 506.225 308.619 C 506.506 323.753, 507.159 336.559, 507.676 337.076 C 508.247 337.647, 532.118 337.915, 568.558 337.758 L 628.500 337.500 628.193 326.500 C 626.908 280.541, 613.795 232.836, 590.818 190.533 C 539.702 96.422, 440.244 33.924, 334.250 29.309 L 320 28.689 320 89.283 M 296.500 154.683 C 286.572 155.950, 270.809 159.487, 261.390 162.561 C 246.939 167.276, 222.776 179.357, 211.029 187.741 C 199.501 195.967, 180.974 213.639, 172.450 224.539 C 161.216 238.905, 150.128 258.727, 144.191 275.060 L 142.170 280.620 147.085 284.273 L 152 287.925 152 284.479 L 152 281.032 179.089 280.766 L 206.178 280.500 206.339 268 L 206.500 255.500 228 255.500 L 249.500 255.500 249.780 268.250 L 250.060 281 258.280 280.998 L 266.500 280.996 266.191 292.998 C 266.021 299.599, 266.246 304.990, 266.691 304.979 C 267.136 304.967, 268.781 303.147, 270.346 300.935 C 277.659 290.600, 293.746 280.965, 307.157 278.888 C 311.196 278.263, 315.063 277.596, 315.750 277.407 C 316.733 277.136, 317 263.906, 317 215.531 L 317 154 308.250 154.150 C 303.438 154.232, 298.150 154.472, 296.500 154.683 M 320 215.855 L 320 277.711 326.337 278.303 C 346.750 280.209, 368.876 297.410, 375.427 316.465 C 376.088 318.389, 376.938 320.271, 377.315 320.648 C 377.692 321.025, 378 312.258, 378 301.167 L 378 281 398.302 281 L 418.605 281 418.500 285 C 418.381 289.573, 419.113 290.003, 421.310 286.649 C 423.882 282.725, 428.938 281, 437.871 281 L 445.940 281 446.220 268.250 L 446.500 255.500 465.182 255.228 L 483.864 254.956 479.569 247.345 C 454.847 203.530, 411.628 171.047, 361.500 158.606 C 352.242 156.308, 335.015 154, 327.122 154 L 320 154 320 215.855 M 544.929 242.308 C 534.944 245.130, 527.153 251.571, 522.319 261 C 519.843 265.831, 519.500 267.595, 519.500 275.500 C 519.500 283.164, 519.896 285.346, 522.170 290.196 C 525.393 297.072, 531.755 303.615, 538.511 307 C 542.849 309.174, 544.805 309.497, 553.500 309.479 C 561.869 309.461, 564.256 309.084, 568.136 307.172 C 575.608 303.489, 580.622 298.513, 584.208 291.223 C 587.192 285.156, 587.500 283.687, 587.500 275.515 C 587.500 267.670, 587.137 265.761, 584.706 260.810 C 577.622 246.385, 559.814 238.101, 544.929 242.308 M 547.297 247.002 C 530.943 250.416, 520.635 267.911, 525.373 284.211 C 527.273 290.747, 534.057 298.917, 540.387 302.293 C 543.745 304.083, 546.153 304.486, 553.500 304.486 C 564.350 304.486, 568.353 302.738, 575.368 294.936 C 594.139 274.058, 574.918 241.236, 547.297 247.002 M 549.842 261.302 L 533.185 267.267 532.809 271.208 C 532.602 273.376, 532.757 275.350, 533.153 275.595 C 533.549 275.840, 536.152 275.174, 538.937 274.116 L 544 272.192 544 285.096 C 544 292.193, 544.191 298, 544.425 298 C 545.335 298, 565.539 290.663, 566.183 290.099 C 566.928 289.446, 567.658 256.271, 566.940 255.692 C 566.698 255.497, 559.004 258.021, 549.842 261.302 M 489.305 274 C 489.486 280.019, 489.676 280.525, 491.880 280.837 C 494.037 281.142, 494.194 280.907, 493.553 278.337 C 493.165 276.776, 492.006 273.700, 490.978 271.500 L 489.110 267.500 489.305 274 M 8.500 321.250 C 8.145 324.137, 8 328.975, 8.178 332 L 8.500 337.500 14.250 337.800 L 20 338.100 20 327.050 L 20 316 14.572 316 L 9.144 316 8.500 321.250 M 63.429 317.325 C 63.149 318.054, 63.051 322.891, 63.210 328.075 L 63.500 337.500 66.757 337.814 C 70.423 338.167, 70.267 338.449, 71.898 328.500 C 72.528 324.650, 73.312 320.262, 73.639 318.750 C 74.227 316.029, 74.179 316, 69.085 316 C 65.734 316, 63.760 316.462, 63.429 317.325 M 193 327.046 L 193 338.091 199.590 337.796 L 206.181 337.500 206.134 328.250 C 206.108 323.163, 206.067 318.325, 206.043 317.500 C 206.009 316.325, 204.592 316, 199.500 316 L 193 316 193 327.046 M 250 327 L 250 338 253.500 338 C 256.458 338, 257.003 337.651, 257.017 335.750 C 257.035 333.507, 259.423 321.393, 260.544 317.860 C 261.072 316.199, 260.540 316, 255.567 316 L 250 316 250 327 M 426.754 317.599 C 420.476 319.529, 418.908 322.098, 418.779 330.664 L 418.676 337.500 432.338 337.778 L 446 338.056 446 327.028 L 446 316 438.750 316.070 C 434.762 316.108, 429.364 316.796, 426.754 317.599 M 489.216 326.704 L 489.500 337.500 496.264 337.796 C 501.621 338.030, 503.150 337.772, 503.618 336.552 C 503.943 335.705, 503.825 330.847, 503.355 325.756 L 502.500 316.500 495.716 316.204 L 488.931 315.907 489.216 326.704 M 125.500 320.207 C 123.850 320.783, 121.098 322.300, 119.384 323.576 C 115.995 326.101, 111.556 334.400, 112.407 336.619 C 113.124 338.486, 128.863 338.606, 129.474 336.750 C 130.434 333.831, 130.462 319.004, 129.507 319.079 C 128.953 319.122, 127.150 319.630, 125.500 320.207 M 133.625 322.125 C 133.281 323.844, 133 328.119, 133 331.625 L 133 338 142 338 C 150.980 338, 151 337.994, 151 335.450 C 151 330.084, 145.477 323.350, 138.782 320.553 C 134.041 318.573, 134.355 318.477, 133.625 322.125 M 311.637 320.465 C 304.901 322.866, 299 330.124, 299 336.007 C 299 337.966, 299.474 338.062, 307.750 337.789 L 316.500 337.500 316.788 328.250 C 316.946 323.163, 316.721 319.020, 316.288 319.044 C 315.854 319.068, 313.762 319.707, 311.637 320.465 M 320.212 328.221 L 320.500 337.500 328.766 337.791 C 338.633 338.138, 339.378 337.346, 335.857 330.258 C 333.386 325.284, 327.736 320.688, 322.712 319.566 L 319.924 318.943 320.212 328.221 M 0 485.500 L 0 630 100.250 629.976 L 200.500 629.953 192 626.127 C 110.428 589.411, 49.978 523.304, 21.342 439.500 C 12.038 412.269, 5.045 373.411, 5.011 348.750 C 5 341.153, 4.951 341, 2.500 341 L 0 341 0 485.500 M 8.016 346.250 C 8.040 354.180, 9.804 373.910, 11.558 385.862 C 20.641 447.750, 50.637 508.325, 95 554.364 C 124.499 584.979, 158.656 608.459, 198.370 625.422 L 209.089 630 263.045 630 L 317 630 317 579.170 L 317 528.340 303.750 527.155 C 264.206 523.616, 229.966 510.007, 200.038 485.933 C 184.162 473.163, 168.982 456.040, 158.124 438.656 C 152.587 429.789, 143.490 411.231, 141.344 404.422 L 139.663 399.089 131.897 399.687 C 122.130 400.441, 113.750 398.851, 104.146 394.424 C 94.059 389.774, 82.821 378.568, 77.646 368 C 74.128 360.814, 71.054 349.570, 71.017 343.750 C 71.001 341.211, 70.693 341, 67 341 L 63 341 63 370.058 L 63 399.117 41.750 398.808 L 20.500 398.500 20.235 369.750 L 19.969 341 13.985 341 L 8 341 8.016 346.250 M 112.561 343.250 C 114.028 347.993, 116.914 352.584, 119.734 354.657 C 122.439 356.646, 129.445 359.215, 130.183 358.489 C 130.357 358.317, 130.354 354.311, 130.177 349.588 L 129.853 341 120.859 341 C 111.993 341, 111.875 341.032, 112.561 343.250 M 133.014 347.250 C 133.021 350.688, 133.299 354.512, 133.630 355.750 C 135.366 362.228, 148.842 353.038, 150.617 344.166 L 151.250 341 142.125 341 L 133 341 133.014 347.250 M 192.765 369.750 L 192.500 398.500 172.500 398.500 L 152.500 398.500 152.194 394.273 L 151.887 390.045 147.021 393.678 L 142.155 397.311 144.705 404.406 C 146.107 408.307, 149.500 416, 152.245 421.500 C 181.490 480.090, 238.454 518.657, 303.590 523.966 C 310.040 524.491, 315.696 524.688, 316.159 524.402 C 316.622 524.116, 317 496.073, 317 462.083 L 317 400.285 310.921 399.650 C 284.935 396.933, 263.252 376.322, 258.194 349.527 L 256.584 341 253.307 341 L 250.031 341 249.765 369.750 L 249.500 398.500 228 398.500 C 207.215 398.500, 206.495 398.434, 206.356 396.500 C 206.277 395.400, 206.165 382.462, 206.106 367.750 L 206 341 199.515 341 L 193.031 341 192.765 369.750 M 299 342.540 C 299 344.878, 302.510 351.224, 305.181 353.716 C 307.745 356.108, 315.445 359.222, 316.410 358.257 C 316.734 357.932, 317 353.917, 317 349.333 L 317 341 308 341 C 300.563 341, 299 341.267, 299 342.540 M 320 349.930 L 320 358.860 322.808 358.055 C 330.407 355.876, 335.892 350.552, 337.548 343.750 L 338.217 341 329.108 341 L 320 341 320 349.930 M 418.996 341.250 C 418.994 341.387, 418.949 354.182, 418.896 369.681 C 418.821 391.510, 418.512 397.973, 417.526 398.352 C 416.826 398.620, 407.646 398.892, 397.126 398.956 L 378 399.071 378 377.835 C 378 356.974, 377.530 354.465, 375.067 362.178 C 373.269 367.807, 366.899 377.038, 360.499 383.286 C 351.247 392.319, 334.259 399.935, 323.250 399.985 L 320 400 320 462.561 L 320 525.121 327.250 524.514 C 348.038 522.771, 364.154 519.673, 378.500 514.661 C 404.829 505.463, 426.139 492.318, 446.741 472.567 C 474.020 446.415, 492.498 413.255, 499.892 377.185 C 501.933 367.224, 504 350.802, 504 344.539 L 504 341 496.500 341 L 489 341 489 369.961 L 489 398.922 467.750 398.711 L 446.500 398.500 446.235 369.750 L 445.969 341 432.485 341 C 425.068 341, 418.998 341.113, 418.996 341.250 M 507 345.949 C 507 352.514, 504.326 372.858, 502.393 381 C 483.354 461.195, 416.937 519.282, 335.500 526.961 C 329.450 527.532, 323.488 527.999, 322.250 527.999 L 320 528 320 579 L 320 630 373.750 629.994 L 427.500 629.987 442 623.732 C 512.660 593.252, 571.022 535.287, 602.322 464.500 C 617.295 430.639, 626.287 392.297, 628.531 352.750 L 629.197 341 568.099 341 L 507 341 507 345.949 M 629.246 380.119 C 628.698 385.955, 625.777 401.217, 622.954 413 C 613.385 452.939, 596.554 489.392, 572.221 522.884 C 549.862 553.657, 520.456 581.677, 489 602.181 C 477.970 609.371, 458.868 619.835, 448.059 624.609 L 436.985 629.500 533.154 629.755 C 586.047 629.895, 629.477 629.856, 629.666 629.668 C 629.854 629.480, 629.892 572.665, 629.750 503.413 C 629.608 434.161, 629.381 378.679, 629.246 380.119" stroke="none" fill="black" fill-rule="evenodd"/>
</svg>