  <svg
    viewBox="0 0 1024 1024"
    version="1.1"
    xmlns="http://www.w3.org/2000/svg"
  >
    <path
      d="M 288 128 C 235.328 128 192 171.328 192 224 v 576 c 0 52.672 43.328 96 96 96 h 208.768 a 288 288 0 0 0 239.232 128 c 158.72 0 288 -129.28 288 -288 c 0 -124.864 -80.512 -230.592 -192 -270.4 V 338.752 L 621.248 128 H 288 z m 0 64 H 576 v 192 h 192 v 67.2 c -10.624 -1.152 -21.056 -3.2 -32 -3.2 c -10.944 0 -21.376 2.048 -32 3.2 V 448 H 448 v 64 h 109.248 a 289.92 289.92 0 0 0 -60.48 64 H 448 v 64 h 17.6 A 284.352 284.352 0 0 0 448 736 c 0 33.792 6.848 65.856 17.6 96 H 288 a 31.552 31.552 0 0 1 -32 -32 v -576 c 0 -17.984 14.016 -32 32 -32 z m 352 45.248 L 722.752 320 H 640 V 237.248 z M 320 448 v 64 h 64 V 448 H 320 z m 416 64 c 124.096 0 224 99.904 224 224 S 860.096 960 736 960 A 223.488 223.488 0 0 1 512 736 C 512 611.904 611.904 512 736 512 z M 320 576 v 64 h 64 V 576 H 320 z m 484 130 H 576 v 64 h 128 h 64 h 128 v -64 h -128 h -64 z"
      fill=""
    />
  </svg>
