  <svg
    xmlns:dc="http://purl.org/dc/elements/1.1/"
    xmlns:cc="http://creativecommons.org/ns#"
    xmlns:rdf="http://www.w3.org/1999/02/22-rdf-syntax-ns#"
    xmlns:svg="http://www.w3.org/2000/svg"
    xmlns="http://www.w3.org/2000/svg"
    version="1.1"
    viewBox="0 0 178 50"
    id="svg34"
  >
    <defs id="defs36" />
    <g transform="translate(0,-10)" id="layer1">
      <g
        transform="matrix(0.34500934,0,0,0.34500934,97.52458,-51.126254)"
        id="g3816"
      >
        <path
          d="m 294.8125,224.25 0,22.15625 -12.34375,0 -2.3125,0 -32.84375,0 0,6.9375 c -6.07917,-6.07685 -13.19055,-9.65625 -20.15625,-9.65625 -29.4371,0 -50.8125,23.85919 -50.8125,53.3125 0,29.43941 21.3754,53.3125 50.8125,53.3125 6.9657,0 14.07708,-3.57939 20.15625,-9.65625 l 0,8.15625 35.15625,0 0,-71.8125 12.34375,0 0,71.8125 37.15625,0 0,-71.8125 14.65625,0 0,-30.59375 -14.65625,0 0,-22.15625 -37.15625,0 z m -65.5,55.1875 c 9.69796,0 17.53125,7.86361 17.53125,17.5625 0,9.68036 -7.83329,17.53125 -17.53125,17.53125 -9.67944,0 -17.5625,-7.85089 -17.5625,-17.53125 0,-9.69889 7.88306,-17.5625 17.5625,-17.5625 z"
          transform="matrix(0.99981214,0,0,0.99981214,-396.65499,-29.605109)"
          id="path2836"
          style="
            fill: white;
            fill-opacity: 1;
            fill-rule: evenodd;
            stroke-width: 0;
            stroke-linecap: butt;
            stroke-linejoin: miter;
            stroke-miterlimit: 2.61310005;
          "
        />
        <path
          d="m -227.37916,319.14445 0,-71.81572 14.65257,0 0,-30.57309 -14.65257,0 0,-22.15877 -37.15542,0 0,22.15877 -14.63451,0 0,30.57309 14.63451,0 0,71.81572 z"
          id="path2840"
          style="
            fill: white;
            fill-opacity: 1;
            fill-rule: evenodd;
            stroke-width: 0;
            stroke-linecap: butt;
            stroke-linejoin: miter;
            stroke-miterlimit: 2.61310005;
          "
        />
        <path
          d="m 504,224.25 0,22.15625 -11.96875,0 c -6.33161,0 -11.18412,3.86282 -13.5,10.25 l 0,-10.21875 -35.125,0 0,102.40625 35.125,0 0,-62.21875 c 0,-9.62478 13.5,-9.625 13.5,-9.625 L 504,277 l 0,71.8125 37.15625,0 0,-71.8125 14.65625,0 0,-30.59375 -14.65625,0 0,-22.15625 -37.15625,0 z"
          transform="matrix(0.99981214,0,0,0.99981214,-396.65499,-29.605109)"
          id="path2844"
          style="
            fill: white;
            fill-opacity: 1;
            fill-rule: evenodd;
            stroke-width: 0;
            stroke-linecap: butt;
            stroke-linejoin: miter;
            stroke-miterlimit: 2.61310005;
          "
        />
        <path
          d="m -22.915068,267.33414 c 0,-9.69707 7.851197,-17.54641 17.5468751,-17.54641 9.6780803,0 17.5468749,7.84934 17.5468749,17.54641 0,9.67854 -7.8687946,17.54641 -17.5468749,17.54641 -9.6956781,0 -17.5468751,-7.86787 -17.5468751,-17.54641 z m -35.762449,0 c 0,-29.44778 23.877754,-53.31072 53.3093241,-53.31072 29.4297179,0 53.3111769,23.86294 53.3111769,53.31072 0,29.43388 -23.881459,53.31071 -53.3111769,53.31071 -29.4315701,0 -53.3093241,-23.87683 -53.3093241,-53.31071 z"
          id="path2864"
          style="
            fill: white;
            fill-opacity: 1;
            fill-rule: evenodd;
            stroke-width: 0;
            stroke-linecap: butt;
            stroke-linejoin: miter;
            stroke-miterlimit: 2.61310005;
          "
        />
        <path
          d="m 200.34047,182.0058 c 16.66593,0 30.16044,13.49816 30.16044,30.16177 0,16.66361 -13.4955,30.16045 -30.16177,30.16045 -16.66229,0 -30.15813,-13.49684 -30.15813,-30.16045 9.4e-4,-16.66361 13.49584,-30.16177 30.15946,-30.16177 z m 0,4.42365 c -14.21463,0 -25.73812,11.52251 -25.73812,25.73812 0,14.21462 11.52249,25.73679 25.73679,25.73679 14.21828,0 25.74177,-11.52217 25.74177,-25.73679 0,-14.21561 -11.52349,-25.73812 -25.74044,-25.73812 z m 12.11107,37.96181 0,-30.20928 -30.35708,10.90203 0,7.5074 10.05636,-3.63944 0,22.70154 20.30072,-7.26225 z"
          id="path1985"
          style="fill: white; fill-opacity: 1; fill-rule: evenodd"
        />
      </g>
    </g>
  </svg>
